:FULLY-SPECIFIED
:FORCE-ALL-JOINTS-BE-3DOF
:DEGREES
49
root 8.49184 15.7518 -29.4299 7.30073 -9.52173 -5.5679
lfemur -40.9252 8.06943 -14.3771
ltibia 34.5743 -0 0
lfoot -0.236797 7.37915 -0.0419606
ltoes -2.92833 0 0
rfemur 20.1838 5.83262 26.1146
rtibia 6.62795 -0 0
rfoot -4.37788 -0.656357 0.177021
rtoes -27.9947 0 0
lowerback -8.45334 1.00193 1.90052
upperback -1.24008 0.999762 3.95126
thorax 3.43489 0.497381 3.16553
lowerneck -21.5123 -4.55374 -12.3205
upperneck 16.4365 -5.49363 14.2402
head 9.50402 -1.81494 6.27719
lclavicle -3.18832e-14 -4.59722e-14 4.89022e-31
lhumerus -42.5724 -7.89595 91.5667
lradius 23.2079 -0 0
lwrist -0.499821 0 0
lhand 5.81376 -17.7607 0.0379038
lfingers 7.12502 -0 0
lthumb 31.1412 9.57259 0.0233995
rclavicle -3.18832e-14 -4.59722e-14 4.89022e-31
rhumerus -45.9299 19.2812 -93.899
rradius 54.1783 -0 0
rwrist -26.1203 0 0
rhand -30.7024 -33.6508 0.0102927
rfingers 7.12502 -0 0
rthumb -3.99585 -63.5938 0.0100101
50
root 8.52577 15.7703 -29.2279 7.21736 -9.58408 -5.38164
lfemur -40.4011 7.88975 -14.6722
ltibia 34.4318 -0 0
lfoot -0.543721 7.4545 -0.05099
ltoes -2.80792 0 0
rfemur 19.2803 5.7464 25.8747
rtibia 8.05312 -0 0
rfoot -4.70241 -0.962994 0.203402
rtoes -27.6774 0 0
lowerback -8.37957 0.954101 1.76777
upperback -1.24685 0.952021 3.92509
thorax 3.38927 0.472688 3.20992
lowerneck -21.5599 -4.53066 -12.2927
upperneck 16.5323 -5.45865 14.1685
head 9.53735 -1.80228 6.25507
lclavicle -3.17033e-14 -4.49871e-14 4.37917e-31
lhumerus -42.2096 -8.02545 91.4682
lradius 23.2299 -0 0
lwrist -0.511798 0 0
lhand 5.51907 -17.8596 0.0496081
lfingers 7.12502 -0 0
lthumb 30.8588 9.51257 0.0301935
rclavicle -3.17033e-14 -4.49871e-14 4.37917e-31
rhumerus -45.9033 19.1736 -93.8469
rradius 53.8265 -0 0
rwrist -26.0062 0 0
rhand -30.6913 -33.4278 0.0107698
rfingers 7.12502 -0 0
rthumb -3.98507 -63.3711 0.0104771
51
root 8.56061 15.7901 -29.0214 7.12905 -9.63961 -5.18382
lfemur -39.8515 7.7023 -14.9867
ltibia 34.2937 -0 0
lfoot -0.881413 7.53567 -0.060218
ltoes -2.68977 0 0
rfemur 18.3009 5.64775 25.6285
rtibia 9.57409 -0 0
rfoot -5.03902 -1.28517 0.229092
rtoes -27.3139 0 0
lowerback -8.29725 0.903306 1.62727
upperback -1.25426 0.901216 3.89617
thorax 3.33835 0.446495 3.25553
lowerneck -21.6074 -4.50687 -12.2644
upperneck 16.6301 -5.42278 14.0959
head 9.57128 -1.78932 6.23273
lclavicle -3.14727e-14 -4.38853e-14 3.66157e-31
lhumerus -41.8203 -8.15521 91.357
lradius 23.2562 -0 0
lwrist -0.517232 0 0
lhand 5.18952 -17.9689 0.0621486
lfingers 7.12502 -0 0
lthumb 30.5429 9.44643 0.0374368
rclavicle -3.14727e-14 -4.38853e-14 3.66157e-31
rhumerus -45.8678 19.0597 -93.7825
rradius 53.4588 -0 0
rwrist -25.889 0 0
rhand -30.6822 -33.1851 0.01104
rfingers 7.12502 -0 0
rthumb -3.97627 -63.1286 0.0107433
52
root 8.59622 15.8112 -28.8111 7.03617 -9.68821 -4.97522
lfemur -39.2773 7.50819 -15.3194
ltibia 34.1592 -0 0
lfoot -1.24779 7.62202 -0.0694575
ltoes -2.57403 0 0
rfemur 17.2505 5.53706 25.3773
rtibia 11.1829 -0 0
rfoot -5.38688 -1.62169 0.253797
rtoes -26.9076 0 0
lowerback -8.20704 0.849764 1.47952
upperback -1.26226 0.847494 3.86467
thorax 3.28255 0.418883 3.30226
lowerneck -21.6545 -4.48248 -12.2356
upperneck 16.7298 -5.38614 14.0225
head 9.60573 -1.77613 6.21019
lclavicle -3.11952e-14 -4.26751e-14 2.77467e-31
lhumerus -41.4062 -8.28517 91.234
lradius 23.2867 -0 0
lwrist -0.51626 0 0
lhand 4.82739 -18.088 0.0752574
lfingers 7.12502 -0 0
lthumb 30.1958 9.37456 0.0449795
rclavicle -3.11952e-14 -4.26751e-14 2.77467e-31
rhumerus -45.824 18.9398 -93.7066
rradius 53.0764 -0 0
rwrist -25.7688 0 0
rhand -30.675 -32.924 0.0111224
rfingers 7.12502 -0 0
rthumb -3.96931 -62.8677 0.0108271
53
root 8.63247 15.8332 -28.5981 6.93912 -9.7298 -4.75662
lfemur -38.6796 7.30855 -15.6692
ltibia 34.0276 -0 0
lfoot -1.64075 7.7129 -0.0785277
ltoes -2.46084 0 0
rfemur 16.1343 5.41477 25.1219
rtibia 12.8717 -0 0
rfoot -5.74515 -1.97137 0.277234
rtoes -26.4617 0 0
lowerback -8.10955 0.793686 1.32501
upperback -1.2708 0.791 3.83078
thorax 3.2223 0.389932 3.35002
lowerneck -21.7013 -4.45759 -12.2064
upperneck 16.8312 -5.34885 13.9484
head 9.64065 -1.76276 6.18748
lclavicle -3.08745e-14 -4.13649e-14 1.75613e-31
lhumerus -40.9693 -8.41527 91.1001
lradius 23.3217 -0 0
lwrist -0.50902 0 0
lhand 4.43497 -18.2163 0.0886671
lfingers 7.12502 -0 0
lthumb 29.8197 9.29731 0.0526717
rclavicle -3.08745e-14 -4.13649e-14 1.75613e-31
rhumerus -45.7727 18.8141 -93.6197
rradius 52.6804 -0 0
rwrist -25.6458 0 0
rhand -30.6695 -32.6458 0.0110372
rfingers 7.12502 -0 0
rthumb -3.96408 -62.5897 0.0107483
54
root 8.66921 15.8563 -28.3831 6.83827 -9.76427 -4.52881
lfemur -38.0594 7.10447 -16.0348
ltibia 33.898 -0 0
lfoot -2.05821 7.80766 -0.0872566
ltoes -2.35034 0 0
rfemur 14.9572 5.2814 24.8634
rtibia 14.6325 -0 0
rfoot -6.11299 -2.33301 0.299142
rtoes -25.9795 0 0
lowerback -8.00543 0.735283 1.16424
upperback -1.2798 0.731881 3.79467
thorax 3.158 0.359722 3.39871
lowerneck -21.7475 -4.43229 -12.177
upperneck 16.9341 -5.31104 13.8737
head 9.67597 -1.74928 6.16465
lclavicle -3.05144e-14 -3.9963e-14 6.43312e-32
lhumerus -40.5114 -8.54544 90.9563
lradius 23.3611 -0 0
lwrist -0.495649 0 0
lhand 4.01454 -18.353 0.102114
lfingers 7.12502 -0 0
lthumb 29.4167 9.21507 0.0603658
rclavicle -3.05144e-14 -3.9963e-14 6.43312e-32
rhumerus -45.7144 18.6829 -93.5226
rradius 52.2719 -0 0
rwrist -25.5203 0 0
rhand -30.6658 -32.3521 0.0108054
rfingers 7.12502 -0 0
rthumb -3.96045 -62.296 0.010527
